# Blender 3.2.2
# www.blender.org
mtllib mug_dbl_filled13.mtl
o mug_dbl_filled.013
v -0.215592 0.323135 -0.136714
v -0.229642 0.309358 -0.133051
v -0.197476 0.330819 -0.133051
v -0.224848 0.337007 -0.117700
v -0.238650 0.322858 -0.114546
v -0.206484 0.344319 -0.114546
v -0.180148 0.330349 -0.123043
v -0.235862 0.293177 -0.123043
v -0.185242 0.277646 -0.082028
v -0.203358 0.269962 -0.085692
v -0.171192 0.291423 -0.085692
v -0.190795 0.285968 -0.070620
v -0.209159 0.278657 -0.073774
v -0.176993 0.300118 -0.073774
v -0.195474 0.292981 -0.058003
v -0.214047 0.285983 -0.060593
v -0.181881 0.307444 -0.060593
v -0.217938 0.291815 -0.046376
v -0.199199 0.298564 -0.044393
v -0.185772 0.313276 -0.046376
v -0.201906 0.302621 -0.030024
v -0.220766 0.296053 -0.031365
v -0.188600 0.317514 -0.031365
v -0.184414 0.336743 -0.035029
v -0.181255 0.332009 -0.051792
v -0.224505 0.371330 -0.048700
v -0.240128 0.299571 -0.035029
v -0.254802 0.312230 -0.040033
v -0.256671 0.349869 -0.048700
v -0.260858 0.330641 -0.045037
v -0.252280 0.343288 -0.072007
v -0.256797 0.324555 -0.066590
v -0.243365 0.364762 -0.050041
v -0.220114 0.364749 -0.072007
v -0.238854 0.358000 -0.073989
v -0.246239 0.334233 -0.094081
v -0.214073 0.355693 -0.094081
v -0.232645 0.348695 -0.096671
v -0.201083 0.361726 -0.066590
v -0.195495 0.353352 -0.087004
v -0.188477 0.342833 -0.105930
v -0.175654 0.332949 -0.094160
v -0.168251 0.321852 -0.109371
v -0.171451 0.317314 -0.082390
v -0.164973 0.307604 -0.095700
v -0.176910 0.325495 -0.067670
v -0.181893 0.342299 -0.077337
v -0.186859 0.349743 -0.059191
v -0.190469 0.355153 -0.040033
v -0.205144 0.367813 -0.045037
v -0.251209 0.316180 -0.087004
v -0.244191 0.305662 -0.105930
v -0.232584 0.278930 -0.109371
v -0.239988 0.290026 -0.094160
v -0.246226 0.299376 -0.077337
v -0.227165 0.280142 -0.082390
v -0.220687 0.270432 -0.095700
v -0.232624 0.288323 -0.067670
v -0.236969 0.294837 -0.051792
v -0.251193 0.306821 -0.059191
vn -0.3924 0.5882 0.7071
vn 0.6180 -0.4608 0.6370
vn 0.1882 -0.7475 0.6370
vn -0.3925 0.5882 0.7071
vn -0.1882 0.7475 -0.6370
vn -0.6180 0.4608 -0.6370
vn -0.1882 0.7476 -0.6370
vn -0.2309 0.8116 -0.5367
vn -0.6607 0.5248 -0.5367
vn -0.2660 0.8641 -0.4273
vn -0.6958 0.5774 -0.4273
vn -0.2929 0.9043 -0.3105
vn -0.6957 0.5774 -0.4273
vn -0.7226 0.6176 -0.3105
vn -0.2928 0.9043 -0.3105
vn 0.1437 -0.2153 -0.9659
vn -0.9596 0.1656 -0.2275
vn 0.1436 -0.2153 -0.9659
vn -0.9596 0.1655 -0.2276
vn 0.9596 -0.1656 0.2276
vn 0.7226 -0.6176 0.3105
vn 0.9596 -0.1656 0.2275
vn 0.2928 -0.9043 0.3105
vn 0.2929 -0.9043 0.3105
vn 0.6957 -0.5774 0.4273
vn 0.2660 -0.8641 0.4273
vn 0.2310 -0.8115 0.5367
vn 0.2309 -0.8116 0.5367
vn 0.6607 -0.5249 0.5367
vn 0.6607 -0.5248 0.5367
vn -0.2609 -0.8816 0.3933
vn -0.2352 -0.9201 0.3131
vn -0.2609 -0.8816 0.3932
vn -0.6952 -0.6982 0.1710
vn -0.6837 -0.7154 0.1441
vn -0.2922 -0.8347 0.4667
vn -0.3926 0.5881 0.7071
vn -0.9116 -0.3738 -0.1710
vn -0.8829 0.0507 -0.4667
vn -0.9142 0.0976 -0.3933
vn -0.9231 -0.3566 -0.1441
vn -0.6743 -0.7295 0.1147
vn -0.9325 -0.3425 -0.1147
vn -0.6671 -0.7403 0.0834
vn -0.9397 -0.3317 -0.0834
vn -0.2155 -0.9496 0.2276
vn -0.9399 0.1361 -0.3131
vn -0.2156 -0.9496 0.2275
vn 0.9142 -0.0976 0.3933
vn 0.9142 -0.0976 0.3932
vn 0.9399 -0.1361 0.3131
vn 0.9116 0.3738 0.1710
vn 0.8829 -0.0507 0.4667
vn 0.9231 0.3566 0.1441
vn 0.6952 0.6982 -0.1710
vn 0.6837 0.7154 -0.1441
vn 0.2922 0.8347 -0.4667
vn 0.2609 0.8816 -0.3933
vn 0.6743 0.7295 -0.1147
vn 0.2352 0.9201 -0.3131
vn 0.6671 0.7403 -0.0834
vn 0.2155 0.9496 -0.2275
vn 0.2156 0.9496 -0.2276
vn 0.9325 0.3425 0.1147
vn 0.9397 0.3317 0.0834
vn -0.3923 0.5883 0.7071
vt 0.875000 0.500000
vt 0.875000 0.583333
vt 0.875000 0.416667
vt 0.895833 0.500000
vt 0.895833 0.583333
vt 0.895833 0.416667
vt 0.875000 0.333333
vt 0.875000 0.666667
vt 0.875000 1.000000
vt 0.875000 0.000000
vt 0.875000 0.916667
vt 0.875000 0.083333
vt 0.895833 1.000000
vt 0.895833 0.000000
vt 0.895833 0.916667
vt 0.895833 0.083333
vt 0.916667 0.000000
vt 0.916667 1.000000
vt 0.916667 0.916667
vt 0.916667 0.083333
vt 0.937500 0.916667
vt 0.937500 1.000000
vt 0.937500 0.000000
vt 0.937500 0.083333
vt 0.958333 1.000000
vt 0.958333 0.000000
vt 0.958333 0.916667
vt 0.958333 0.083333
vt 0.958333 0.166667
vt 0.937500 0.166667
vt 0.958333 0.416667
vt 0.958333 0.833333
vt 0.958333 0.750000
vt 0.958333 0.583333
vt 0.958333 0.666667
vt 0.937500 0.583333
vt 0.937500 0.666667
vt 0.958333 0.500000
vt 0.937500 0.416667
vt 0.937500 0.500000
vt 0.916667 0.583333
vt 0.916667 0.416667
vt 0.916667 0.500000
vt 0.937500 0.333333
vt 0.916667 0.333333
vt 0.895833 0.333333
vt 0.895833 0.250000
vt 0.875000 0.250000
vt 0.895833 0.166667
vt 0.875000 0.166667
vt 0.916667 0.166667
vt 0.916667 0.250000
vt 0.937500 0.250000
vt 0.958333 0.250000
vt 0.958333 0.333333
vt 0.916667 0.666667
vt 0.895833 0.666667
vt 0.875000 0.750000
vt 0.895833 0.750000
vt 0.916667 0.750000
vt 0.895833 0.833333
vt 0.875000 0.833333
vt 0.916667 0.833333
vt 0.937500 0.833333
vt 0.937500 0.750000
s 0
usemtl Material.001
f 1/1/1 2/2/1 8/8/1
f 1/1/2 5/5/2 2/2/2
f 7/7/1 3/3/1 1/1/1
f 6/6/3 1/1/3 3/3/3
f 6/6/3 4/4/3 1/1/3
f 1/1/2 4/4/2 5/5/2
f 7/7/1 1/1/1 9/9/1
f 1/1/4 8/8/4 9/9/4
f 10/11/4 9/9/4 8/8/4
f 10/11/5 12/13/5 9/9/5
f 9/9/1 11/12/1 7/7/1
f 12/14/6 11/12/6 9/10/6
f 12/14/6 14/16/6 11/12/6
f 10/11/7 13/15/7 12/13/7
f 13/15/8 15/18/8 12/13/8
f 15/17/9 14/16/9 12/14/9
f 15/17/9 17/20/9 14/16/9
f 13/15/8 16/19/8 15/18/8
f 18/21/10 15/18/10 16/19/10
f 19/23/11 17/20/11 15/17/11
f 18/21/10 19/22/10 15/18/10
f 18/21/12 21/25/12 19/22/12
f 19/23/13 20/24/13 17/20/13
f 21/26/14 20/24/14 19/23/14
f 21/26/14 23/28/14 20/24/14
f 18/21/15 22/27/15 21/25/15
f 23/28/16 21/26/16 22/27/16
f 23/28/17 25/30/17 20/24/17
f 24/29/18 23/28/18 26/31/18
f 23/28/19 24/29/19 25/30/19
f 29/34/18 26/31/18 23/28/18
f 22/27/16 27/32/16 23/28/16
f 27/32/16 28/33/16 23/28/16
f 28/33/16 29/34/16 23/28/16
f 28/33/18 30/35/18 29/34/18
f 29/34/20 30/35/20 32/37/20
f 33/38/21 29/34/21 31/36/21
f 29/34/22 32/37/22 31/36/22
f 29/34/16 33/38/16 26/31/16
f 33/38/21 31/36/21 35/40/21
f 34/39/23 26/31/23 33/38/23
f 34/39/24 33/38/24 35/40/24
f 35/40/25 31/36/25 36/41/25
f 35/40/25 36/41/25 38/43/25
f 37/42/26 34/39/26 35/40/26
f 37/42/26 35/40/26 38/43/26
f 6/6/27 37/42/27 38/43/27
f 6/6/28 38/43/28 4/4/28
f 38/43/29 36/41/29 5/5/29
f 38/43/30 5/5/30 4/4/30
f 41/46/31 37/42/31 6/6/31
f 39/44/32 34/39/32 37/42/32
f 39/44/32 37/42/32 40/45/32
f 41/46/33 40/45/33 37/42/33
f 43/48/34 42/47/34 41/46/34
f 42/47/35 40/45/35 41/46/35
f 41/46/36 6/6/36 3/3/36
f 41/46/36 3/3/36 7/7/36
f 43/48/34 41/46/34 7/7/34
f 45/50/37 43/48/37 7/7/37
f 44/49/38 42/47/38 43/48/38
f 44/49/38 43/48/38 45/50/38
f 11/12/1 45/50/1 7/7/1
f 14/16/39 45/50/39 11/12/39
f 14/16/39 44/49/39 45/50/39
f 17/20/40 44/49/40 14/16/40
f 44/49/41 47/52/41 42/47/41
f 17/20/40 46/51/40 44/49/40
f 44/49/41 46/51/41 47/52/41
f 42/47/35 47/52/35 40/45/35
f 48/53/42 40/45/42 47/52/42
f 25/30/43 48/53/43 47/52/43
f 25/30/43 47/52/43 46/51/43
f 48/53/44 49/54/44 50/55/44
f 25/30/45 49/54/45 48/53/45
f 48/53/44 50/55/44 39/44/44
f 48/53/42 39/44/42 40/45/42
f 26/31/18 50/55/18 49/54/18
f 39/44/46 50/55/46 26/31/46
f 49/54/18 24/29/18 26/31/18
f 25/30/45 24/29/45 49/54/45
f 20/24/47 46/51/47 17/20/47
f 20/24/47 25/30/47 46/51/47
f 39/44/48 26/31/48 34/39/48
f 36/41/49 52/57/49 5/5/49
f 36/41/50 51/56/50 52/57/50
f 36/41/51 32/37/51 51/56/51
f 36/41/51 31/36/51 32/37/51
f 52/57/52 54/59/52 53/58/52
f 52/57/52 53/58/52 8/8/52
f 2/2/53 5/5/53 52/57/53
f 2/2/53 52/57/53 8/8/53
f 51/56/54 54/59/54 52/57/54
f 53/58/55 54/59/55 56/61/55
f 51/56/54 55/60/54 54/59/54
f 55/60/56 56/61/56 54/59/56
f 53/58/55 56/61/55 57/62/55
f 56/61/57 13/15/57 10/11/57
f 56/61/57 10/11/57 57/62/57
f 56/61/58 58/63/58 16/19/58
f 55/60/56 58/63/56 56/61/56
f 56/61/58 16/19/58 13/15/58
f 55/60/59 59/64/59 58/63/59
f 58/63/60 18/21/60 16/19/60
f 58/63/60 59/64/60 18/21/60
f 55/60/59 60/65/59 59/64/59
f 28/33/61 59/64/61 60/65/61
f 59/64/62 22/27/62 18/21/62
f 28/33/61 27/32/61 59/64/61
f 59/64/63 27/32/63 22/27/63
f 51/56/64 60/65/64 55/60/64
f 30/35/65 28/33/65 60/65/65
f 30/35/65 60/65/65 32/37/65
f 51/56/64 32/37/64 60/65/64
f 8/8/66 53/58/66 57/62/66
f 57/62/1 10/11/1 8/8/1
