# Blender 3.2.2
# www.blender.org
mtllib mug_dbl_filled9.mtl
o mug_dbl_filled.009
v -0.180781 0.270958 0.178625
v -0.195763 0.258578 0.173839
v -0.163597 0.280039 0.173839
v -0.193369 0.289826 0.167440
v -0.175848 0.298401 0.162953
v -0.205040 0.307318 0.153389
v -0.208014 0.276941 0.162953
v -0.187206 0.315425 0.149279
v -0.215592 0.323135 0.136714
v -0.180148 0.330349 0.123043
v -0.197476 0.330819 0.133051
v -0.170650 0.316114 0.138050
v -0.150472 0.295205 0.133952
v -0.159808 0.309198 0.122711
v -0.160147 0.300371 0.150696
v -0.148817 0.283389 0.160763
v -0.140401 0.280110 0.142900
v -0.140604 0.271080 0.125038
v -0.149372 0.258718 0.111962
v -0.149416 0.284287 0.117208
v -0.157263 0.270545 0.104950
v -0.157586 0.296532 0.107372
v -0.164578 0.281509 0.096144
v -0.171192 0.291423 0.085692
v -0.178910 0.268155 0.092033
v -0.196744 0.260048 0.096144
v -0.189429 0.249085 0.104950
v -0.203358 0.269962 0.085692
v -0.185242 0.277646 0.082028
v -0.171908 0.257660 0.100464
v -0.181538 0.237257 0.111962
v -0.164355 0.246339 0.107175
v -0.205130 0.247115 0.117208
v -0.196318 0.233908 0.125038
v -0.204734 0.237187 0.142900
v -0.214805 0.252282 0.133952
v -0.204531 0.246218 0.160763
v -0.215861 0.263199 0.150696
v -0.226364 0.278942 0.138050
v -0.219372 0.293964 0.149279
v -0.224142 0.266275 0.122711
v -0.235862 0.293177 0.123043
v -0.229642 0.309358 0.133051
v -0.232584 0.278930 0.109371
v -0.220687 0.270432 0.095700
v -0.213299 0.259360 0.107372
v -0.164973 0.307604 0.095700
v -0.168251 0.321852 0.109371
vn 0.5127 -0.7685 0.3828
vn -0.4520 0.2121 0.8664
vn -0.0223 0.4988 0.8664
vn -0.0222 0.4988 0.8664
vn -0.0830 0.5898 0.8032
vn -0.5128 0.3031 0.8032
vn -0.1387 0.6732 0.7263
vn -0.1386 0.6732 0.7263
vn 0.3285 0.7803 0.5322
vn 0.3693 0.7192 0.5886
vn 0.7234 0.6559 0.2156
vn 0.7085 0.6783 0.1950
vn 0.7397 0.6314 0.2326
vn 0.4138 0.6525 0.6349
vn 0.5128 -0.7685 0.3827
vn 0.8670 0.4406 -0.2326
vn 0.7613 0.1316 -0.6349
vn 0.8671 0.4406 -0.2326
vn 0.8058 0.0649 -0.5886
vn 0.8834 0.4161 -0.2156
vn 0.8058 0.0648 -0.5886
vn 0.8466 0.0037 -0.5322
vn 0.5684 -0.3865 -0.7263
vn 0.5128 -0.3031 -0.8033
vn 0.5128 -0.3031 -0.8032
vn 0.0830 -0.5898 -0.8033
vn 0.1386 -0.6732 -0.7263
vn 0.0830 -0.5898 -0.8032
vn 0.4520 -0.2121 -0.8664
vn 0.4520 -0.2120 -0.8664
vn 0.0223 -0.4988 -0.8664
vn 0.0222 -0.4988 -0.8664
vn 0.5128 -0.7686 0.3826
vn -0.4138 -0.6525 -0.6349
vn 0.5127 -0.7685 0.3827
vn -0.7397 -0.6314 -0.2326
vn -0.8670 -0.4406 0.2326
vn -0.7613 -0.1316 0.6349
vn -0.8671 -0.4406 0.2326
vn -0.8058 -0.0648 0.5886
vn -0.8834 -0.4161 0.2156
vn -0.8058 -0.0649 0.5886
vn -0.8466 -0.0038 0.5322
vn -0.8983 -0.3938 0.1950
vn -0.3924 0.5882 -0.7071
vn -0.3923 0.5883 -0.7071
vn -0.7085 -0.6783 -0.1950
vn -0.3285 -0.7803 -0.5322
vn 0.8466 0.0038 -0.5322
vn 0.8983 0.3938 -0.1950
vn -0.3926 0.5881 -0.7071
vn -0.3925 0.5882 -0.7071
vn -0.7234 -0.6559 -0.2156
vn -0.3693 -0.7192 -0.5886
vn -0.5684 0.3865 0.7263
vn -0.5127 0.3031 0.8033
vn -0.3693 -0.7191 -0.5886
vt 0.812500 0.500000
vt 0.812500 0.583333
vt 0.812500 0.416667
vt 0.833333 0.500000
vt 0.833333 0.416667
vt 0.854167 0.500000
vt 0.833333 0.583333
vt 0.854167 0.416667
vt 0.875000 0.500000
vt 0.875000 0.333333
vt 0.875000 0.416667
vt 0.854167 0.333333
vt 0.833333 0.250000
vt 0.854167 0.250000
vt 0.833333 0.333333
vt 0.812500 0.333333
vt 0.812500 0.250000
vt 0.812500 0.166667
vt 0.812500 0.083333
vt 0.833333 0.166667
vt 0.833333 0.083333
vt 0.854167 0.166667
vt 0.854167 0.083333
vt 0.875000 0.083333
vt 0.854167 1.000000
vt 0.854167 0.000000
vt 0.854167 0.916667
vt 0.833333 0.916667
vt 0.875000 0.916667
vt 0.875000 1.000000
vt 0.875000 0.000000
vt 0.833333 0.000000
vt 0.833333 1.000000
vt 0.812500 0.916667
vt 0.812500 1.000000
vt 0.812500 0.000000
vt 0.833333 0.833333
vt 0.812500 0.833333
vt 0.812500 0.750000
vt 0.833333 0.750000
vt 0.812500 0.666667
vt 0.833333 0.666667
vt 0.854167 0.666667
vt 0.854167 0.583333
vt 0.854167 0.750000
vt 0.875000 0.666667
vt 0.875000 0.583333
vt 0.875000 0.750000
vt 0.875000 0.833333
vt 0.854167 0.833333
vt 0.875000 0.166667
vt 0.875000 0.250000
s 0
usemtl Material.001
f 3/3/1 1/1/1 2/2/1
f 4/4/2 2/2/2 1/1/2
f 3/3/3 4/4/3 1/1/3
f 3/3/4 5/5/4 4/4/4
f 4/4/2 7/7/2 2/2/2
f 8/8/5 4/4/5 5/5/5
f 8/8/5 6/6/5 4/4/5
f 6/6/6 7/7/6 4/4/6
f 8/8/7 11/11/7 9/9/7
f 8/8/8 9/9/8 6/6/8
f 10/10/9 11/11/9 8/8/9
f 10/10/9 8/8/9 12/12/9
f 12/12/10 8/8/10 5/5/10
f 13/13/11 14/14/11 12/12/11
f 13/13/11 12/12/11 15/15/11
f 12/12/10 5/5/10 15/15/10
f 14/14/12 10/10/12 12/12/12
f 13/13/13 15/15/13 16/16/13
f 16/16/14 15/15/14 5/5/14
f 3/3/15 17/17/15 16/16/15
f 13/13/13 16/16/13 17/17/13
f 16/16/14 5/5/14 3/3/14
f 18/18/16 13/13/16 17/17/16
f 18/18/15 17/17/15 3/3/15
f 19/19/15 18/18/15 3/3/15
f 19/19/17 20/20/17 18/18/17
f 18/18/18 20/20/18 13/13/18
f 19/19/17 21/21/17 20/20/17
f 23/23/19 20/20/19 21/21/19
f 20/20/20 14/14/20 13/13/20
f 20/20/20 22/22/20 14/14/20
f 23/23/21 22/22/21 20/20/21
f 24/24/22 22/22/22 23/23/22
f 25/26/23 24/24/23 23/23/23
f 25/26/24 23/23/24 21/21/24
f 25/26/25 21/21/25 30/32/25
f 27/28/26 26/27/26 25/25/26
f 28/29/27 25/25/27 26/27/27
f 27/28/28 25/25/28 30/33/28
f 28/29/27 29/30/27 25/25/27
f 25/26/23 29/31/23 24/24/23
f 30/32/29 21/21/29 19/19/29
f 30/32/30 19/19/30 32/36/30
f 31/34/31 27/28/31 30/33/31
f 31/34/32 30/33/32 32/35/32
f 31/34/33 32/36/33 19/19/33
f 33/37/34 27/28/34 31/34/34
f 33/37/34 31/34/34 34/38/34
f 35/39/35 34/38/35 31/34/35
f 35/39/35 31/34/35 3/3/35
f 31/34/15 19/19/15 3/3/15
f 36/40/36 34/38/36 35/39/36
f 37/41/37 36/40/37 35/39/37
f 2/2/35 37/41/35 35/39/35
f 3/3/15 2/2/15 35/39/15
f 7/7/38 37/41/38 2/2/38
f 7/7/38 38/42/38 37/41/38
f 37/41/39 38/42/39 36/40/39
f 7/7/40 39/43/40 38/42/40
f 39/43/41 36/40/41 38/42/41
f 7/7/42 40/44/42 39/43/42
f 40/44/43 42/46/43 39/43/43
f 39/43/41 41/45/41 36/40/41
f 42/46/44 41/45/44 39/43/44
f 40/44/43 43/47/43 42/46/43
f 42/46/45 43/47/45 45/49/45
f 42/46/44 44/48/44 41/45/44
f 45/49/46 44/48/46 42/46/46
f 41/45/47 44/48/47 45/49/47
f 41/45/47 45/49/47 46/50/47
f 28/29/45 45/49/45 47/51/45
f 46/50/48 45/49/48 28/29/48
f 43/47/45 9/9/45 45/49/45
f 9/9/45 47/51/45 45/49/45
f 47/51/45 24/24/45 29/31/45
f 24/24/49 47/51/49 22/22/49
f 47/51/50 48/52/50 14/14/50
f 47/51/50 14/14/50 22/22/50
f 10/10/51 48/52/51 47/51/51
f 9/9/45 11/11/45 47/51/45
f 11/11/45 10/10/45 47/51/45
f 29/31/52 28/29/52 47/51/52
f 14/14/12 48/52/12 10/10/12
f 41/45/53 46/50/53 33/37/53
f 33/37/54 46/50/54 26/27/54
f 46/50/48 28/29/48 26/27/48
f 9/9/55 43/47/55 40/44/55
f 41/45/53 33/37/53 36/40/53
f 9/9/55 40/44/55 6/6/55
f 6/6/56 40/44/56 7/7/56
f 36/40/36 33/37/36 34/38/36
f 33/37/57 26/27/57 27/28/57
