# Blender 3.2.2
# www.blender.org
mtllib mug_dbl_filled14.mtl
o mug_dbl_filled.014
v -0.263322 0.334335 -0.022713
v -0.256671 0.349869 -0.048700
v -0.260858 0.330641 -0.045037
v -0.256993 0.315513 -0.020189
v -0.259336 0.353864 -0.024560
v -0.264148 0.335573 0.000000
v -0.260230 0.355203 0.000000
v -0.263322 0.334335 0.022713
v -0.247022 0.370242 0.000000
v -0.246104 0.368866 -0.025236
v -0.259336 0.353864 0.024560
v -0.256671 0.349869 0.048700
v -0.246104 0.368866 0.025236
v -0.224505 0.371330 0.048700
v -0.227170 0.375324 0.024560
v -0.228064 0.376664 0.000000
v -0.243365 0.364762 0.050041
v -0.208434 0.372745 0.000000
v -0.207608 0.371506 0.022713
v -0.207608 0.371506 -0.022713
v -0.227170 0.375324 -0.024560
v -0.224505 0.371330 -0.048700
v -0.205144 0.367813 -0.045037
v -0.243365 0.364762 -0.050041
v -0.190469 0.355153 -0.040033
v -0.220766 0.296053 -0.031365
v -0.203549 0.305084 -0.015142
v -0.240128 0.299571 -0.035029
v -0.242045 0.302444 -0.017665
v -0.201906 0.302621 -0.030024
v -0.222482 0.298626 -0.015818
v -0.184414 0.336743 -0.035029
v -0.188600 0.317514 -0.031365
v -0.190316 0.320087 -0.015818
v -0.186331 0.339616 -0.017665
v -0.192659 0.358436 -0.020189
v -0.186973 0.340578 0.000000
v -0.193394 0.359537 0.000000
v -0.186331 0.339616 0.017665
v -0.192659 0.358436 0.020189
v -0.205144 0.367813 0.045037
v -0.184414 0.336743 0.035029
v -0.190469 0.355153 0.040033
v -0.220766 0.296053 0.031365
v -0.201906 0.302621 0.030024
v -0.242045 0.302444 0.017665
v -0.222482 0.298626 0.015818
v -0.240128 0.299571 0.035029
v -0.188600 0.317514 0.031365
v -0.203549 0.305084 0.015142
v -0.190316 0.320087 0.015818
v -0.204099 0.305909 0.000000
v -0.190892 0.320950 0.000000
v -0.223058 0.299489 0.000000
v -0.242687 0.303406 0.000000
v -0.257728 0.316615 0.000000
v -0.256993 0.315513 0.020189
v -0.254802 0.312230 0.040033
v -0.260858 0.330641 0.045037
v -0.254802 0.312230 -0.040033
vn -0.9729 0.1855 -0.1381
vn -0.9446 -0.3244 -0.0506
vn -0.9470 -0.3207 -0.0170
vn -0.9796 0.1955 -0.0463
vn -0.9796 0.1956 -0.0463
vn -0.9796 0.1956 0.0463
vn -0.9796 0.1955 0.0463
vn -0.7499 0.6586 0.0632
vn -0.7499 0.6586 -0.0632
vn -0.9729 0.1855 0.1381
vn -0.7407 0.6448 0.1885
vn -0.3110 0.9315 0.1885
vn -0.3202 0.9453 0.0632
vn -0.3202 0.9452 0.0632
vn 0.1437 -0.2153 0.9659
vn 0.1956 0.9796 0.0463
vn 0.1956 0.9796 -0.0463
vn -0.3202 0.9452 -0.0632
vn -0.3110 0.9315 -0.1885
vn 0.2023 0.9695 -0.1381
vn -0.3202 0.9453 -0.0632
vn 0.1436 -0.2153 -0.9659
vn 0.2022 0.9696 -0.1381
vn 0.1437 -0.2153 -0.9659
vn 0.3110 -0.9315 0.1885
vn -0.2023 -0.9695 0.1381
vn 0.7407 -0.6448 0.1885
vn 0.9729 -0.1855 0.1381
vn 0.9796 -0.1956 0.0463
vn 0.9446 0.3244 0.0506
vn 0.9470 0.3207 0.0170
vn 0.9470 0.3207 -0.0170
vn 0.6597 0.7513 0.0170
vn 0.6597 0.7513 -0.0170
vn 0.6622 0.7476 0.0506
vn 0.9446 0.3244 -0.0506
vn 0.6598 0.7513 0.0170
vn 0.1436 -0.2153 0.9659
vn 0.3110 -0.9315 -0.1885
vn -0.2023 -0.9695 -0.1381
vn 0.9729 -0.1855 -0.1381
vn 0.7407 -0.6448 -0.1885
vn 0.7499 -0.6586 -0.0632
vn 0.7499 -0.6585 -0.0632
vn 0.9796 -0.1956 -0.0463
vn 0.7499 -0.6585 0.0632
vn 0.3201 -0.9453 -0.0632
vn 0.3202 -0.9453 0.0632
vn 0.3201 -0.9453 0.0632
vn 0.3202 -0.9453 -0.0632
vn -0.1955 -0.9796 -0.0463
vn -0.1955 -0.9796 0.0463
vn -0.6598 -0.7513 -0.0169
vn -0.6598 -0.7513 0.0169
vn -0.9470 -0.3207 0.0170
vn -0.6597 -0.7513 -0.0170
vn -0.6597 -0.7513 0.0170
vn -0.9446 -0.3244 0.0506
vn -0.6622 -0.7476 -0.0506
vn 0.2022 0.9696 0.1381
vn 0.6598 0.7513 -0.0170
vn 0.6622 0.7476 -0.0506
vn -0.6622 -0.7476 0.0506
vn -0.7407 0.6448 -0.1885
vn 0.2023 0.9695 0.1381
vt 0.020833 0.666667
vt 0.041667 0.583333
vt 0.041667 0.666667
vt 0.020833 0.750000
vt 0.020833 0.583333
vt 0.000000 0.666667
vt 1.000000 0.666667
vt 1.000000 0.583333
vt 0.000000 0.583333
vt 0.979167 0.666667
vt 1.000000 0.500000
vt 0.000000 0.500000
vt 0.020833 0.500000
vt 0.979167 0.583333
vt 0.958333 0.583333
vt 0.979167 0.500000
vt 0.958333 0.416667
vt 0.979167 0.416667
vt 1.000000 0.416667
vt 0.000000 0.416667
vt 0.958333 0.500000
vt 1.000000 0.333333
vt 0.000000 0.333333
vt 0.979167 0.333333
vt 0.020833 0.333333
vt 0.020833 0.416667
vt 0.041667 0.416667
vt 0.041667 0.333333
vt 0.041667 0.500000
vt 0.041667 0.250000
vt 0.041667 0.916667
vt 0.020833 1.000000
vt 0.020833 0.000000
vt 0.041667 0.833333
vt 0.020833 0.833333
vt 0.041667 1.000000
vt 0.041667 0.000000
vt 0.020833 0.916667
vt 0.041667 0.166667
vt 0.041667 0.083333
vt 0.020833 0.083333
vt 0.020833 0.166667
vt 0.020833 0.250000
vt 1.000000 0.166667
vt 0.000000 0.166667
vt 1.000000 0.250000
vt 0.000000 0.250000
vt 0.979167 0.166667
vt 0.979167 0.250000
vt 0.958333 0.333333
vt 0.958333 0.166667
vt 0.958333 0.250000
vt 0.958333 0.916667
vt 0.958333 0.000000
vt 0.958333 1.000000
vt 0.979167 0.833333
vt 0.979167 0.916667
vt 0.958333 0.833333
vt 0.958333 0.083333
vt 0.979167 0.000000
vt 0.979167 1.000000
vt 0.979167 0.083333
vt 1.000000 0.000000
vt 0.000000 0.000000
vt 1.000000 1.000000
vt 0.000000 1.000000
vt 1.000000 0.083333
vt 0.000000 0.083333
vt 1.000000 0.916667
vt 0.000000 0.916667
vt 1.000000 0.833333
vt 0.000000 0.833333
vt 1.000000 0.750000
vt 0.000000 0.750000
vt 0.979167 0.750000
vt 0.958333 0.750000
vt 0.958333 0.666667
vt 0.041667 0.750000
s 0
usemtl Material.001
f 2/2/1 3/3/1 1/1/1
f 2/2/1 1/1/1 5/5/1
f 3/3/2 4/4/2 1/1/2
f 6/6/3 1/1/3 4/4/3
f 7/9/4 5/5/4 1/1/4
f 7/9/5 1/1/5 6/6/5
f 7/8/6 6/7/6 8/10/6
f 7/8/7 8/10/7 11/14/7
f 9/11/8 7/8/8 11/14/8
f 10/13/9 7/9/9 9/12/9
f 10/13/9 5/5/9 7/9/9
f 12/15/10 11/14/10 8/10/10
f 13/16/11 11/14/11 12/15/11
f 9/11/8 11/14/8 13/16/8
f 13/16/11 12/15/11 17/21/11
f 14/17/12 15/18/12 13/16/12
f 14/17/12 13/16/12 17/21/12
f 16/19/13 13/16/13 15/18/13
f 16/19/14 9/11/14 13/16/14
f 14/17/15 17/21/15 12/15/15
f 19/24/16 18/22/16 16/19/16
f 20/25/17 16/20/17 18/23/17
f 19/24/16 16/19/16 15/18/16
f 20/25/17 21/26/17 16/20/17
f 21/26/18 9/12/18 16/20/18
f 22/27/19 10/13/19 21/26/19
f 20/25/20 22/27/20 21/26/20
f 21/26/21 10/13/21 9/12/21
f 22/27/22 23/28/22 25/30/22
f 20/25/23 23/28/23 22/27/23
f 2/2/24 24/29/24 22/27/24
f 22/27/19 24/29/19 10/13/19
f 2/2/22 22/27/22 26/31/22
f 22/27/22 25/30/22 26/31/22
f 26/31/25 30/36/25 27/32/25
f 26/31/25 27/32/25 31/38/25
f 26/31/24 28/34/24 2/2/24
f 29/35/26 28/34/26 26/31/26
f 29/35/26 26/31/26 31/38/26
f 33/40/24 30/37/24 26/31/24
f 25/30/22 32/39/22 26/31/22
f 32/39/24 33/40/24 26/31/24
f 30/37/27 33/40/27 34/41/27
f 33/40/28 35/42/28 34/41/28
f 33/40/28 32/39/28 35/42/28
f 34/41/29 35/42/29 37/45/29
f 32/39/30 36/43/30 35/42/30
f 35/42/31 36/43/31 38/47/31
f 35/42/31 38/47/31 37/45/31
f 39/48/32 37/44/32 38/46/32
f 39/48/32 38/46/32 40/49/32
f 40/49/33 38/46/33 18/22/33
f 36/43/34 18/23/34 38/47/34
f 40/49/35 19/24/35 41/50/35
f 40/49/35 41/50/35 43/52/35
f 42/51/36 39/48/36 40/49/36
f 42/51/36 40/49/36 43/52/36
f 40/49/37 18/22/37 19/24/37
f 42/51/38 43/52/38 44/53/38
f 43/52/38 41/50/38 14/17/38
f 43/52/38 14/17/38 44/53/38
f 44/53/15 45/54/15 49/59/15
f 47/57/39 45/55/39 44/53/39
f 46/56/40 47/57/40 44/53/40
f 46/56/40 44/53/40 48/58/40
f 48/58/15 44/53/15 12/15/15
f 14/17/38 12/15/38 44/53/38
f 49/59/15 42/51/15 44/53/15
f 49/59/41 39/48/41 42/51/41
f 50/60/42 51/62/42 49/59/42
f 50/60/42 49/59/42 45/54/42
f 49/59/41 51/62/41 39/48/41
f 52/63/43 51/62/43 50/60/43
f 52/63/44 53/67/44 51/62/44
f 51/62/45 53/67/45 37/44/45
f 51/62/45 37/44/45 39/48/45
f 27/33/46 53/68/46 52/64/46
f 34/41/29 37/45/29 53/68/29
f 27/33/46 34/41/46 53/68/46
f 54/69/47 52/65/47 50/61/47
f 31/38/48 27/32/48 52/66/48
f 31/38/49 52/66/49 54/70/49
f 54/69/50 50/61/50 47/57/50
f 55/71/51 54/69/51 47/57/51
f 55/72/52 31/38/52 54/70/52
f 56/73/53 55/71/53 46/56/53
f 56/74/54 29/35/54 55/72/54
f 55/71/51 47/57/51 46/56/51
f 55/72/52 29/35/52 31/38/52
f 6/7/55 56/73/55 57/75/55
f 6/6/3 4/4/3 56/74/3
f 56/73/56 46/56/56 57/75/56
f 56/74/57 4/4/57 29/35/57
f 59/77/58 8/10/58 57/75/58
f 6/7/55 57/75/55 8/10/55
f 57/75/59 48/58/59 58/76/59
f 59/77/58 57/75/58 58/76/58
f 57/75/59 46/56/59 48/58/59
f 12/15/38 59/77/38 58/76/38
f 12/15/10 8/10/10 59/77/10
f 58/76/15 48/58/15 12/15/15
f 47/57/39 50/61/39 45/55/39
f 19/24/60 14/17/60 41/50/60
f 36/43/61 20/25/61 18/23/61
f 36/43/62 23/28/62 20/25/62
f 32/39/30 25/30/30 36/43/30
f 36/43/62 25/30/62 23/28/62
f 30/37/27 34/41/27 27/33/27
f 4/4/63 28/34/63 29/35/63
f 28/34/24 60/78/24 2/2/24
f 4/4/63 60/78/63 28/34/63
f 60/78/22 3/3/22 2/2/22
f 3/3/2 60/78/2 4/4/2
f 10/13/64 24/29/64 2/2/64
f 19/24/65 15/18/65 14/17/65
f 10/13/64 2/2/64 5/5/64
