# Blender 4.1.1
# www.blender.org
mtllib handle4.mtl
o mug_dbl_filled_small.004
v 0.000000 0.097044 -0.067162
v -0.006774 0.096807 -0.065362
v 0.006774 0.096807 -0.065362
v 0.000000 0.105735 -0.065433
v -0.006774 0.105265 -0.063680
v 0.006774 0.105265 -0.063680
v 0.000000 0.091018 -0.067557
v -0.006774 0.090351 -0.065785
v 0.006774 0.090351 -0.065785
v -0.011733 0.089863 -0.060858
v -0.013548 0.089684 -0.054096
v -0.011733 0.089863 -0.047310
v 0.011733 0.089863 -0.047310
v 0.013548 0.089684 -0.054096
v 0.011733 0.089863 -0.060858
v 0.013548 0.095276 -0.053729
v 0.011733 0.096160 -0.060446
v 0.011733 0.103981 -0.058890
v 0.013548 0.102228 -0.052346
v 0.013548 0.108941 -0.050068
v 0.011733 0.111533 -0.056326
v 0.006774 0.113431 -0.060908
v 0.011733 0.106348 -0.043809
v 0.006774 0.104450 -0.039228
v 0.006774 0.099191 -0.041013
v 0.011733 0.100475 -0.045803
v 0.000000 0.103756 -0.037551
v -0.006774 0.104450 -0.039228
v -0.011733 0.106348 -0.043809
v 0.000000 0.114126 -0.062585
v -0.006774 0.113431 -0.060908
v -0.011733 0.111533 -0.056326
v -0.013548 0.108941 -0.050068
v -0.011733 0.103981 -0.058890
v -0.013548 0.095276 -0.053729
v -0.011733 0.096160 -0.060446
v -0.013548 0.102228 -0.052346
v -0.011733 0.100475 -0.045803
v -0.006774 0.093744 -0.042097
v -0.011733 0.094391 -0.047013
v -0.006774 0.099191 -0.041013
v 0.000000 0.098722 -0.039260
v 0.000000 0.093507 -0.040297
v 0.000000 0.091018 -0.040460
v 0.006774 0.093744 -0.042097
v 0.011733 0.094391 -0.047013
v 0.006774 0.090351 -0.042319
v -0.006774 0.090351 -0.042319
vn 0.2583 -0.0632 0.9640
vn 0.2583 -0.1884 0.9475
vn -0.2583 -0.1884 0.9475
vn -0.2583 -0.0632 0.9640
vn -0.2583 -0.1885 0.9475
vn 0.2583 -0.1885 0.9475
vn -0.0980 0.9952 -0.0000
vn 0.0980 0.9952 -0.0000
vn -0.0000 0.9984 0.0570
vn -0.9658 -0.0170 0.2588
vn -0.7063 -0.0463 0.7064
vn -0.9658 -0.0506 0.2544
vn -0.7064 -0.1381 0.6943
vn -0.7063 -0.1381 0.6943
vn -0.9658 -0.0834 0.2456
vn -0.7064 -0.2275 0.6703
vn -0.0000 -0.9239 -0.3827
vn -0.7063 -0.2276 0.6703
vn -0.0001 -0.9238 -0.3828
vn -0.7063 0.2275 -0.6703
vn -0.9658 0.0834 -0.2456
vn -0.0000 -0.9239 -0.3826
vn 0.2583 -0.3105 0.9148
vn -0.2583 -0.3105 0.9148
vn 0.7063 -0.2276 0.6703
vn 0.7064 -0.2275 0.6703
vn 0.9658 -0.0834 0.2456
vn 0.9658 -0.0506 0.2544
vn 0.7064 -0.1381 0.6943
vn 0.9658 0.0506 -0.2544
vn 0.9658 0.0834 -0.2456
vn 0.7063 0.1381 -0.6943
vn 0.7063 0.2275 -0.6703
vn 0.2583 0.1885 -0.9475
vn 0.2583 0.1884 -0.9475
vn 0.2583 0.3105 -0.9148
vn 0.2583 0.0632 -0.9640
vn -0.2583 0.0632 -0.9640
vn -0.2583 0.1884 -0.9475
vn -0.7063 0.0462 -0.7064
vn -0.7063 0.1381 -0.6943
vn -0.2583 0.1885 -0.9475
vn -0.2583 0.0631 -0.9640
vn -0.0000 0.9412 -0.3378
vn -0.7063 0.0463 -0.7064
vn -0.0000 0.9952 -0.0974
vn 0.7063 0.0462 -0.7064
vn 0.2583 0.0631 -0.9640
vn 0.7063 0.0463 -0.7064
vn -0.9658 0.0170 -0.2588
vn -0.9658 0.0506 -0.2544
vn -0.2583 0.3105 -0.9148
vn 0.2583 0.3106 -0.9148
vn -0.2583 0.3106 -0.9148
vn 0.9658 0.0170 -0.2588
vn 0.7063 -0.0463 0.7064
vn 0.7063 -0.1381 0.6943
vn 0.9658 -0.0170 0.2588
vt 0.756636 0.500000
vt 0.770833 0.500000
vt 0.770833 0.583333
vt 0.791667 0.583333
vt 0.791667 0.416667
vt 0.770833 0.416667
vt 0.791667 0.500000
vt 0.755203 0.583333
vt 0.754347 0.666667
vt 0.754347 0.333333
vt 0.755203 0.416667
vt 0.754364 0.750000
vt 0.755590 0.833333
vt 0.755590 0.166667
vt 0.754364 0.250000
vt 0.770833 0.250000
vt 0.770833 0.333333
vt 0.791667 0.333333
vt 0.791667 0.250000
vt 0.812500 0.250000
vt 0.812500 0.333333
vt 0.812500 0.166667
vt 0.812500 0.416667
vt 0.812500 0.083333
vt 0.812500 0.000000
vt 0.791667 0.083333
vt 0.791667 0.166667
vt 0.812500 0.916667
vt 0.812500 0.833333
vt 0.812500 0.500000
vt 0.812500 0.583333
vt 0.812500 0.666667
vt 0.791667 0.666667
vt 0.812500 0.750000
vt 0.791667 0.750000
vt 0.770833 0.750000
vt 0.770833 0.666667
vt 0.791667 0.833333
vt 0.791667 0.916667
vt 0.770833 0.916667
vt 0.770833 0.833333
vt 0.770833 1.000000
vt 0.791667 1.000000
vt 0.761059 1.000000
vt 0.761059 0.000000
vt 0.770833 0.000000
vt 0.770833 0.083333
vt 0.791667 0.000000
vt 0.758078 0.083333
vt 0.770833 0.166667
vt 0.758078 0.916667
vt 0.812500 1.000000
s 0
usemtl Material.001
f 7/1/1 1/2/1 2/3/1
f 1/2/2 5/4/2 2/3/2
f 6/5/3 1/2/3 3/6/3
f 7/1/4 3/6/4 1/2/4
f 6/5/5 4/7/5 1/2/5
f 1/2/6 4/7/6 5/4/6
f 7/1/1 2/3/1 8/8/1
f 7/1/7 8/8/7 10/9/7
f 15/10/8 9/11/8 7/1/8
f 7/1/4 9/11/4 3/6/4
f 10/9/7 11/12/7 7/1/7
f 11/12/7 12/13/7 7/1/7
f 7/1/9 12/13/9 13/14/9
f 13/14/8 14/15/8 7/1/8
f 14/15/8 15/10/8 7/1/8
f 16/16/10 15/10/10 14/15/10
f 16/16/10 17/17/10 15/10/10
f 17/17/11 9/11/11 15/10/11
f 16/16/12 18/18/12 17/17/12
f 17/17/11 3/6/11 9/11/11
f 17/17/13 18/18/13 6/5/13
f 17/17/14 6/5/14 3/6/14
f 16/16/12 19/19/12 18/18/12
f 20/20/15 18/18/15 19/19/15
f 20/20/15 21/21/15 18/18/15
f 21/21/16 6/5/16 18/18/16
f 21/21/17 20/20/17 23/22/17
f 21/21/18 22/23/18 6/5/18
f 22/23/17 21/21/17 23/22/17
f 23/22/19 24/24/19 27/25/19
f 25/26/20 24/24/20 23/22/20
f 25/26/20 23/22/20 26/27/20
f 26/27/21 23/22/21 20/20/21
f 27/25/22 28/28/22 23/22/22
f 28/28/17 29/29/17 23/22/17
f 29/29/17 30/30/17 23/22/17
f 30/30/17 22/23/17 23/22/17
f 31/31/17 30/30/17 29/29/17
f 4/7/23 30/30/23 31/31/23
f 22/23/24 30/30/24 4/7/24
f 32/32/17 31/31/17 29/29/17
f 5/4/25 31/31/25 32/32/25
f 4/7/23 31/31/23 5/4/23
f 5/4/26 32/32/26 34/33/26
f 29/29/17 33/34/17 32/32/17
f 34/33/27 32/32/27 33/34/27
f 34/33/28 37/35/28 35/36/28
f 34/33/28 35/36/28 36/37/28
f 5/4/29 34/33/29 36/37/29
f 34/33/27 33/34/27 37/35/27
f 35/36/30 37/35/30 38/38/30
f 37/35/31 29/29/31 38/38/31
f 37/35/31 33/34/31 29/29/31
f 38/38/32 41/39/32 39/40/32
f 38/38/32 39/40/32 40/41/32
f 35/36/30 38/38/30 40/41/30
f 29/29/33 41/39/33 38/38/33
f 41/39/34 43/42/34 39/40/34
f 29/29/33 28/28/33 41/39/33
f 41/39/35 42/43/35 43/42/35
f 28/28/36 42/43/36 41/39/36
f 39/40/37 43/42/37 44/44/37
f 44/45/38 43/46/38 45/47/38
f 42/48/39 45/47/39 43/46/39
f 47/49/40 45/47/40 46/50/40
f 25/26/41 46/50/41 45/47/41
f 42/48/42 25/26/42 45/47/42
f 44/45/43 45/47/43 47/49/43
f 48/51/44 44/45/44 47/49/44
f 47/49/45 46/50/45 13/14/45
f 47/49/46 13/14/46 12/13/46
f 12/13/46 48/51/46 47/49/46
f 40/41/47 39/40/47 48/51/47
f 39/40/48 44/44/48 48/51/48
f 40/41/49 48/51/49 12/13/49
f 13/14/50 46/50/50 16/16/50
f 26/27/51 16/16/51 46/50/51
f 25/26/41 26/27/41 46/50/41
f 42/48/52 24/24/52 25/26/52
f 28/28/53 27/52/53 42/43/53
f 42/48/54 27/25/54 24/24/54
f 35/36/55 40/41/55 12/13/55
f 8/8/56 2/3/56 36/37/56
f 5/4/57 36/37/57 2/3/57
f 10/9/58 36/37/58 35/36/58
f 8/8/56 36/37/56 10/9/56
f 35/36/55 12/13/55 11/12/55
f 10/9/58 35/36/58 11/12/58
f 26/27/51 19/19/51 16/16/51
f 26/27/21 20/20/21 19/19/21
f 22/23/24 4/7/24 6/5/24
f 13/14/50 16/16/50 14/15/50
