# Blender 4.1.1
# www.blender.org
mtllib collision_vhacd.mtl
o Cube.002
v 0.058277 -0.098405 -0.089567
v 0.058277 -0.098405 0.067900
v -0.003362 -0.098405 0.067900
v -0.003362 -0.098405 -0.089567
v 0.058277 0.108358 -0.089567
v 0.058277 0.108358 0.067900
v -0.003362 0.108358 -0.089567
v -0.003362 0.108358 0.067900
vn -0.0000 -1.0000 -0.0000
vn 1.0000 -0.0000 -0.0000
vn -0.0000 1.0000 -0.0000
vn -1.0000 -0.0000 -0.0000
vn -0.0000 -0.0000 1.0000
vn -0.0000 -0.0000 -1.0000
vt 1.000000 1.000000
vt 0.000000 0.000000
vt 1.000000 0.000000
vt 0.000000 1.000000
s 1
usemtl default
f 2/1/1 4/2/1 1/3/1
f 6/1/2 1/2/2 5/3/2
f 8/1/3 5/2/3 7/3/3
f 3/1/4 7/2/4 4/3/4
f 6/1/5 3/2/5 2/3/5
f 1/1/6 7/2/6 5/3/6
f 2/1/1 3/4/1 4/2/1
f 6/1/2 2/4/2 1/2/2
f 8/1/3 6/4/3 5/2/3
f 3/1/4 8/4/4 7/2/4
f 6/1/5 8/4/5 3/2/5
f 1/1/6 4/4/6 7/2/6
