# Blender 4.1.1
# www.blender.org
mtllib box_wide.mtl
o wide_box
v 0.155000 0.064400 0.120636
v 0.155000 -0.064400 0.120636
v -0.155000 -0.064400 -0.079364
v -0.155000 0.064400 -0.079364
v -0.155000 0.064400 0.120636
v -0.155000 -0.064400 0.120636
v 0.155000 -0.064400 -0.079364
v 0.155000 0.064400 -0.079364
vn -1.0000 -0.0000 -0.0000
vn -0.0000 -0.0000 1.0000
vn -0.0000 -0.0000 -1.0000
vn 1.0000 -0.0000 -0.0000
vn -0.0000 1.0000 -0.0000
vn -0.0000 -1.0000 -0.0000
vt 0.625000 0.500000
vt 0.375000 0.500000
vt 0.625000 0.250000
vt 0.375000 0.250000
s 0
f 8/1/1 2/2/1 1/1/1
f 7/2/2 4/3/2 3/4/2
f 5/3/3 2/2/3 6/4/3
f 4/3/4 6/4/4 3/4/4
f 3/4/5 2/2/5 7/2/5
f 8/1/6 5/3/6 4/3/6
f 8/1/1 7/2/1 2/2/1
f 7/2/2 8/1/2 4/3/2
f 5/3/3 1/1/3 2/2/3
f 4/3/4 5/3/4 6/4/4
f 3/4/5 6/4/5 2/2/5
f 8/1/6 1/1/6 5/3/6
