# Blender v3.2.2 OBJ File: ''
# www.blender.org
mtllib desk_base_only.mtl
o table_Cube
v -4.676700 -0.000001 2.434993
v -4.676700 7.264423 2.434995
v -4.876326 7.264423 2.434992
v -4.876326 -0.000001 2.434993
v -4.676700 7.264423 -2.695271
v -4.676700 -0.000001 -2.695272
v -4.876326 -0.000001 -2.695273
v -4.876326 7.264423 -2.695272
v -4.676700 -0.000001 -1.817284
v -4.876326 -0.000001 -1.817287
v -4.676700 -0.000001 1.557006
v -4.876326 -0.000001 1.557004
v -4.676700 7.264423 -1.817282
v -4.676700 7.264423 1.557009
v -4.876326 7.264423 1.557004
v -4.876326 7.264423 -1.817285
v -4.876326 0.164202 1.323968
v -4.676700 0.164202 1.323969
v -4.676700 0.164202 -1.584248
v -4.876326 0.164202 -1.584250
v -4.676700 7.264423 1.265136
v -4.676700 7.264423 -1.525404
v -4.876326 7.264423 -1.525413
v -4.876326 7.264423 1.265126
v 4.676706 -0.000001 1.557004
v 4.676706 7.264423 1.557004
v 4.676706 7.264423 1.265126
v 4.676706 0.164202 1.323968
v 4.676706 0.164202 -1.584250
v 4.676706 7.264423 -1.525413
v 4.676706 -0.000001 -1.817287
v 4.676706 7.264423 -1.817285
v 4.876333 7.264423 -1.817282
v 4.876333 7.264423 -1.525404
v 4.876333 0.164202 -1.584248
v 4.876333 -0.000001 -1.817284
v 4.876333 0.164202 1.323969
v 4.876333 7.264423 1.265136
v 4.876333 -0.000001 1.557006
v 4.876333 7.264423 1.557009
v 4.676706 7.264423 -2.695272
v 4.676706 -0.000001 -2.695273
v 4.676706 7.264423 2.434992
v 4.676706 -0.000001 2.434993
v 4.876333 7.264423 2.434995
v 4.876333 -0.000001 2.434993
v 4.876333 -0.000001 -2.695272
v 4.876333 7.264423 -2.695271
v 5.007033 7.452566 -2.986354
v 5.007033 7.276187 -2.986354
v -5.007025 7.276187 -2.986354
v -5.007024 7.452566 -2.986354
v -5.007027 7.276187 3.197893
v 5.007030 7.276187 3.197893
v 5.007036 7.452566 3.197893
v -5.007025 7.452566 3.197893
v 5.018795 7.276187 3.186128
v 5.018797 7.276187 -2.974589
v 5.018797 7.452566 -2.974589
v 5.018800 7.452566 3.186128
v -5.007028 7.264422 3.186128
v -5.007026 7.264422 -2.974589
v 5.007033 7.264422 -2.974589
v 5.007030 7.264422 3.186128
v -5.018790 7.452566 3.186128
v -5.018788 7.452566 -2.974589
v -5.018791 7.276187 -2.974589
v -5.018793 7.276187 3.186128
v 5.007036 7.464331 3.186128
v 5.007033 7.464331 -2.974589
v -5.007024 7.464331 -2.974589
v -5.007025 7.464331 3.186128
v -4.676699 1.599471 -2.695272
v -4.676699 3.142732 -2.695272
v 4.676706 3.142732 -2.695272
v 4.676706 1.599471 -2.695272
v 4.676707 3.142731 -2.494851
v -4.676699 3.142732 -2.494851
v -4.676699 1.599471 -2.494851
v 4.676706 1.599470 -2.494851
v 0.545099 3.756794 -2.695271
v 0.545099 7.264423 -2.695271
v 0.745007 7.264423 -2.695271
v 0.745007 3.756794 -2.695271
v 0.745006 7.264423 2.434995
v 0.545098 7.264423 2.434995
v 0.545098 3.756795 2.434995
v 0.745006 3.756793 2.434995
v 0.745007 3.955586 -2.695271
v 0.745007 7.264423 -2.695271
v 4.676706 7.264423 -2.695271
v 4.676706 3.955585 -2.695271
v 4.676706 7.264423 -2.600431
v 0.745007 7.264423 -2.600431
v 0.745007 3.955586 -2.600431
v 4.676706 3.955585 -2.600431
vt 0.446173 0.866516
vt 0.430293 0.288652
vt 0.446173 0.288652
vt 0.446173 -0.347724
vt 0.430293 0.230139
vt 0.446173 0.230139
vt 0.446173 0.343959
vt 0.430293 0.274118
vt 0.430293 0.343959
vt 0.446173 0.323891
vt 0.430293 0.254050
vt 0.430293 0.323891
vt 0.849467 0.380116
vt 0.959616 0.975383
vt 0.849467 0.975383
vt 0.426139 0.975383
vt 0.315991 0.380116
vt 0.426140 0.380116
vt -0.058587 0.656349
vt 0.051563 0.061083
vt -0.058587 0.061083
vt 0.585039 0.656349
vt 0.474890 0.061083
vt 0.474890 0.656349
vt 0.446173 0.342428
vt 0.446173 0.274118
vt 0.430293 0.255581
vt 0.446173 0.255580
vt 0.430293 0.024241
vt 0.455376 0.393571
vt 0.812849 0.975383
vt 0.462757 0.975383
vt 0.820231 0.393571
vt 0.445654 0.074538
vt 0.088181 0.656349
vt 0.438272 0.656349
vt 0.051563 0.656349
vt 0.080799 0.074538
vt 0.333245 0.607418
vt 0.362481 0.025606
vt 0.333245 0.012151
vt 0.727336 0.025606
vt 0.369863 0.607418
vt 0.719955 0.607418
vt 0.756572 0.607418
vt 0.756572 0.012151
vt 0.465900 0.961682
vt 0.436664 0.379870
vt 0.465900 0.366415
vt 0.071809 0.379870
vt 0.429281 0.961682
vt 0.079190 0.961682
vt 0.042572 0.961682
vt 0.042573 0.366415
vt 0.569712 0.255580
vt 0.553832 0.024241
vt 0.553832 0.255581
vt 0.569712 0.274118
vt 0.553832 0.274118
vt 0.553832 0.323891
vt 0.569712 0.342428
vt 0.569712 0.323891
vt 0.866721 0.607418
vt 0.223095 0.607418
vt 0.223095 0.012151
vt -0.067577 0.366415
vt 0.576049 0.961682
vt 0.553832 0.254050
vt 0.569712 0.343959
vt 0.553832 0.343959
vt 0.569712 -0.347724
vt 0.553832 0.230139
vt 0.569712 0.230139
vt 0.569712 0.866516
vt 0.553832 0.288652
vt 0.569712 0.288652
vt 0.914951 0.119776
vt 0.937766 0.965793
vt 0.937766 0.119776
vt 0.092229 0.119776
vt 0.115044 0.965793
vt 0.092229 0.965794
vt 0.913461 0.103863
vt 0.116557 0.118764
vt 0.116557 0.103863
vt 0.913428 0.965794
vt 0.116552 0.119763
vt 0.116552 0.965794
vt 0.913461 0.981688
vt 0.116557 0.966787
vt 0.116557 0.981688
vt 0.913428 0.119763
vt 0.116552 0.965794
vt 0.116552 0.119763
vt 0.715768 0.273784
vt 0.527816 -0.212187
vt 0.527816 0.273784
vt 0.472190 0.689437
vt 0.284238 0.203466
vt 0.472190 0.203466
vt 0.472190 0.212915
vt 0.284238 0.202501
vt 0.472190 0.202501
vt 0.636863 0.203466
vt 0.661272 0.689437
vt 0.661272 0.203466
vt 0.527816 0.212915
vt 0.715768 0.202501
vt 0.527816 0.202501
vt 0.636863 0.273784
vt 0.661272 -0.212187
vt 0.661272 0.273784
vt 0.543363 0.548327
vt 0.559265 0.269306
vt 0.543363 0.269306
vt 0.559265 0.230139
vt 0.543363 -0.048882
vt 0.559265 -0.048882
vt 0.416773 0.921669
vt 0.948171 0.684362
vt 0.948171 0.921669
vt 0.559265 -0.064139
vt 0.543363 0.343959
vt 0.559265 0.343959
vt 0.416773 0.684362
vt 0.948171 0.921669
vt 0.948171 0.684362
vt 0.543363 -0.064139
vt 0.559265 0.343959
vt 0.543363 0.343959
vt 0.559265 0.285119
vt 0.872020 0.548327
vt 0.872020 0.285119
vt 0.553832 0.230139
vt 0.241077 -0.033069
vt 0.553832 -0.033069
vt 0.547765 0.230139
vt 0.555309 -0.033069
vt 0.555309 0.230139
vt 0.553832 0.336415
vt 0.241077 0.343959
vt 0.553832 0.343959
vt 0.547765 0.285119
vt 0.555309 0.548327
vt 0.555309 0.285119
vt 0.559265 0.336415
vt 0.872020 0.343959
vt 0.559265 0.343959
vt 0.510743 0.187454
vt 0.489262 0.186843
vt 0.489262 0.187454
vt 0.913428 0.965794
vt 0.914950 0.119763
vt 0.914950 0.965794
vt 0.914950 0.965794
vt 0.913428 0.119763
vt 0.489262 0.186843
vt 0.510743 0.187454
vt 0.489262 0.187454
vt 0.510743 0.195805
vt 0.489262 0.196416
vt 0.510743 0.196416
vt 0.489262 0.289071
vt 0.510743 0.289682
vt 0.489262 0.289682
vt 0.115030 0.965794
vt 0.115030 0.119763
vt 0.913428 0.118769
vt 0.116552 0.118769
vt 0.913428 0.966788
vt 0.116552 0.966788
vt 0.913428 0.118769
vt 0.913428 0.966788
vt 0.115030 0.119763
vt 0.430293 0.866516
vt 0.430293 -0.347724
vt 0.446173 0.254050
vt 0.959617 0.380116
vt 0.315990 0.975383
vt 0.585039 0.061083
vt 0.430293 0.342429
vt 0.446173 0.024240
vt 0.569712 0.024240
vt 0.553832 0.342429
vt 0.866721 0.012151
vt -0.067577 0.961682
vt 0.576049 0.366415
vt 0.569712 0.254050
vt 0.553832 -0.347724
vt 0.553832 0.866516
vt 0.913461 0.118764
vt 0.913461 0.966787
vt 0.715768 -0.212187
vt 0.284238 0.689437
vt 0.284238 0.212915
vt 0.636863 0.689437
vt 0.715768 0.212915
vt 0.636863 -0.212187
vt 0.559265 0.548327
vt 0.543363 0.230139
vt 0.416773 0.684362
vt 0.543363 -0.064139
vt 0.416773 0.921669
vt 0.559265 -0.064139
vt 0.559265 0.548327
vt 0.241077 0.230139
vt 0.547765 -0.033069
vt 0.241077 0.336415
vt 0.547765 0.548327
vt 0.872020 0.336415
vt 0.510743 0.186843
vt 0.510743 0.186843
vt 0.489262 0.195805
vt 0.510743 0.289070
vn 0.0000 -0.0000 1.0000
vn 0.0000 0.0000 -1.0000
vn -0.0000 -1.0000 -0.0000
vn 1.0000 0.0000 0.0000
vn -1.0000 0.0000 0.0000
vn 0.0000 -0.8175 -0.5760
vn -0.0000 -0.8175 0.5760
vn 0.0000 1.0000 -0.0000
vn -0.7071 0.0000 -0.7072
vn 0.0000 0.7071 -0.7071
vn 0.0000 -0.7072 -0.7071
vn 0.7071 0.0000 -0.7071
vn 0.0000 0.7071 0.7071
vn -0.7071 0.0000 0.7071
vn 0.7071 -0.0000 0.7071
vn 0.0000 -0.7071 0.7071
vn 0.7071 0.7071 -0.0000
vn 0.7071 -0.7071 0.0000
vn -0.7071 -0.7071 -0.0000
vn -0.7071 0.7071 -0.0000
vn 0.5774 0.5773 -0.5773
vn 0.5774 -0.5773 -0.5773
vn -0.5774 -0.5773 -0.5774
vn -0.5774 0.5774 -0.5773
vn 0.5774 0.5774 0.5773
vn 0.5774 -0.5774 0.5773
vn -0.5774 -0.5774 0.5773
vn -0.5774 0.5774 0.5773
vn -0.7071 0.0000 -0.7071
vn 0.0000 -0.7071 -0.7071
vn 0.0000 0.7072 0.7071
vn 0.7072 -0.0000 0.7070
vn 0.7072 0.7071 -0.0000
vn -0.7072 0.7071 -0.0000
usemtl Wood_rojiza_tileable.jpg
s off
f 2/1/1 4/2/1 1/3/1
f 6/4/2 8/5/2 5/6/2
f 6/7/3 10/8/3 7/9/3
f 11/10/3 4/11/3 12/12/3
f 9/13/4 5/14/4 13/15/4
f 14/16/4 1/17/4 11/18/4
f 3/19/5 12/20/5 4/21/5
f 8/22/5 10/23/5 16/24/5
f 12/12/6 18/25/6 11/10/6
f 9/26/7 20/27/7 10/8/7
f 19/28/3 17/29/3 20/27/3
f 18/30/4 14/16/4 11/18/4
f 18/30/4 22/31/4 21/32/4
f 13/15/4 19/33/4 9/13/4
f 20/34/5 16/24/5 10/23/5
f 20/34/5 24/35/5 23/36/5
f 15/37/5 17/38/5 12/20/5
f 26/39/5 28/40/5 25/41/5
f 29/42/5 27/43/5 30/44/5
f 29/42/5 32/45/5 31/46/5
f 33/47/4 35/48/4 36/49/4
f 37/50/4 34/51/4 38/52/4
f 37/50/4 40/53/4 39/54/4
f 35/55/3 28/56/3 29/57/3
f 36/58/7 29/57/7 31/59/7
f 25/60/6 37/61/6 39/62/6
f 41/63/5 31/46/5 32/45/5
f 43/64/5 25/41/5 44/65/5
f 40/53/4 46/66/4 39/54/4
f 36/49/4 48/67/4 33/47/4
f 39/62/3 44/68/3 25/60/3
f 47/69/3 31/59/3 42/70/3
f 47/71/2 41/72/2 48/73/2
f 45/74/1 44/75/1 46/76/1
f 50/77/2 52/78/2 49/79/2
f 54/80/1 56/81/1 53/82/1
f 58/83/4 60/84/4 57/85/4
f 62/86/3 64/87/3 61/88/3
f 66/89/5 68/90/5 65/91/5
f 70/92/8 72/93/8 69/94/8
f 74/95/2 76/96/2 73/97/2
f 78/98/1 80/99/1 77/100/1
f 77/101/4 76/102/4 75/103/4
f 80/104/3 73/105/3 76/106/3
f 79/107/5 74/108/5 73/109/5
f 78/110/8 75/111/8 74/112/8
f 82/113/2 84/114/2 81/115/2
f 85/116/1 87/117/1 88/118/1
f 85/119/4 84/120/4 83/121/4
f 88/122/3 81/123/3 84/124/3
f 87/125/5 82/126/5 81/127/5
f 86/128/8 83/129/8 82/130/8
f 89/131/2 91/132/2 92/133/2
f 93/134/1 95/135/1 96/136/1
f 93/137/4 92/138/4 91/139/4
f 96/140/3 89/141/3 92/142/3
f 95/143/5 90/144/5 89/145/5
f 94/146/8 91/147/8 90/148/8
f 66/149/9 51/150/9 67/151/9
f 71/152/10 49/153/10 52/154/10
f 51/155/11 63/156/11 62/86/11
f 50/157/12 59/158/12 58/159/12
f 56/81/13 69/94/13 72/93/13
f 65/160/14 53/161/14 56/162/14
f 57/163/15 55/164/15 54/165/15
f 53/166/16 64/87/16 54/167/16
f 60/84/17 70/92/17 69/94/17
f 64/87/18 58/168/18 57/169/18
f 68/90/19 62/86/19 61/88/19
f 72/93/20 66/170/20 65/171/20
f 49/153/21 70/92/21 59/172/21
f 50/77/22 58/168/22 63/156/22
f 51/155/23 62/86/23 67/173/23
f 52/154/24 66/170/24 71/152/24
f 55/174/25 60/84/25 69/94/25
f 54/167/26 64/87/26 57/169/26
f 53/166/27 68/90/27 61/88/27
f 56/81/28 72/93/28 65/171/28
f 2/1/1 3/175/1 4/2/1
f 6/4/2 7/176/2 8/5/2
f 6/7/3 9/26/3 10/8/3
f 11/10/3 1/177/3 4/11/3
f 9/13/4 6/178/4 5/14/4
f 14/16/4 2/179/4 1/17/4
f 3/19/5 15/37/5 12/20/5
f 8/22/5 7/180/5 10/23/5
f 12/12/6 17/181/6 18/25/6
f 9/26/7 19/28/7 20/27/7
f 19/28/3 18/182/3 17/29/3
f 18/30/4 21/32/4 14/16/4
f 18/30/4 19/33/4 22/31/4
f 13/15/4 22/31/4 19/33/4
f 20/34/5 23/36/5 16/24/5
f 20/34/5 17/38/5 24/35/5
f 15/37/5 24/35/5 17/38/5
f 26/39/5 27/43/5 28/40/5
f 29/42/5 28/40/5 27/43/5
f 29/42/5 30/44/5 32/45/5
f 33/47/4 34/51/4 35/48/4
f 37/50/4 35/48/4 34/51/4
f 37/50/4 38/52/4 40/53/4
f 35/55/3 37/183/3 28/56/3
f 36/58/7 35/55/7 29/57/7
f 25/60/6 28/184/6 37/61/6
f 41/63/5 42/185/5 31/46/5
f 43/64/5 26/39/5 25/41/5
f 40/53/4 45/186/4 46/66/4
f 36/49/4 47/187/4 48/67/4
f 39/62/3 46/188/3 44/68/3
f 47/69/3 36/58/3 31/59/3
f 47/71/2 42/189/2 41/72/2
f 45/74/1 43/190/1 44/75/1
f 50/77/2 51/155/2 52/78/2
f 54/80/1 55/174/1 56/81/1
f 58/83/4 59/191/4 60/84/4
f 62/86/3 63/156/3 64/87/3
f 66/89/5 67/192/5 68/90/5
f 70/92/8 71/152/8 72/93/8
f 74/95/2 75/193/2 76/96/2
f 78/98/1 79/194/1 80/99/1
f 77/101/4 80/195/4 76/102/4
f 80/104/3 79/196/3 73/105/3
f 79/107/5 78/197/5 74/108/5
f 78/110/8 77/198/8 75/111/8
f 82/113/2 83/199/2 84/114/2
f 85/116/1 86/200/1 87/117/1
f 85/119/4 88/201/4 84/120/4
f 88/122/3 87/202/3 81/123/3
f 87/125/5 86/203/5 82/126/5
f 86/128/8 85/204/8 83/129/8
f 89/131/2 90/205/2 91/132/2
f 93/134/1 94/206/1 95/135/1
f 93/137/4 96/207/4 92/138/4
f 96/140/3 95/208/3 89/141/3
f 95/143/5 94/209/5 90/144/5
f 94/146/8 93/210/8 91/147/8
f 66/149/29 52/211/29 51/150/29
f 71/152/10 70/92/10 49/153/10
f 51/155/30 50/77/30 63/156/30
f 50/157/12 49/212/12 59/158/12
f 56/81/31 55/174/31 69/94/31
f 65/160/14 68/213/14 53/161/14
f 57/163/32 60/214/32 55/164/32
f 53/166/16 61/88/16 64/87/16
f 60/84/33 59/172/33 70/92/33
f 64/87/18 63/156/18 58/168/18
f 68/90/19 67/173/19 62/86/19
f 72/93/34 71/152/34 66/170/34
